HIERARCHY
ROOT Hips
{
    OFFSET 0.000000 0.000000 0.000000
    CHANNELS 6 Xposition Yposition Zposition Zrotation Xrotation Yrotation
    JOINT Spine
    {
        OFFSET -0.000000 8.312343 0.000000
        CHANNELS 3 Zrotation Xrotation Yrotation
        JOINT Spine1
        {
            OFFSET -0.000000 28.293047 0.000000
            CHANNELS 3 Zrotation Xrotation Yrotation
            JOINT Neck
            {
                OFFSET -0.000000 28.176853 2.561532
                CHANNELS 3 Zrotation Xrotation Yrotation
                JOINT Head
                {
                    OFFSET -0.000000 14.191803 -2.027400
                    CHANNELS 3 Zrotation Xrotation Yrotation
                    End Site
                    {
                        OFFSET -0.000000 25.342506 0.000000
                    }
                }
            }
            JOINT LeftShoulder
            {
                OFFSET 4.015815 26.370180 -0.268885
                CHANNELS 3 Zrotation Xrotation Yrotation
                JOINT LeftArm
                {
                    OFFSET 11.299099 0.000000 0.000000
                    CHANNELS 3 Zrotation Xrotation Yrotation
                    JOINT LeftForeArm
                    {
                        OFFSET 30.537071 0.000000 0.000000
                        CHANNELS 3 Zrotation Xrotation Yrotation
                        JOINT LeftHand
                        {
                            OFFSET 29.851767 0.000000 0.000000
                            CHANNELS 3 Zrotation Xrotation Yrotation
                            End Site
                            {
                                OFFSET 15.205504 0.000000 0.000000
                            }
                        }
                    }
                }
            }
            JOINT RightShoulder
            {
                OFFSET -4.091585 26.370180 -0.268885
                CHANNELS 3 Zrotation Xrotation Yrotation
                JOINT RightArm
                {
                    OFFSET -11.299099 0.000000 0.000000
                    CHANNELS 3 Zrotation Xrotation Yrotation
                    JOINT RightForeArm
                    {
                        OFFSET -30.537071 0.000000 0.000000
                        CHANNELS 3 Zrotation Xrotation Yrotation
                        JOINT RightHand
                        {
                            OFFSET -29.851767 0.000000 0.000000
                            CHANNELS 3 Zrotation Xrotation Yrotation
                            End Site
                            {
                                OFFSET -15.205504 0.000000 0.000000
                            }
                        }
                    }
                }
            }
        }
    }
    JOINT LeftUpLeg
    {
        OFFSET 10.137003 0.000000 0.000000
        CHANNELS 3 Zrotation Xrotation Yrotation
        JOINT LeftLeg
        {
            OFFSET -0.000000 -31.675148 0.000000
            CHANNELS 3 Zrotation Xrotation Yrotation
            JOINT LeftFoot
            {
                OFFSET -0.000000 -48.008553 0.000000
                CHANNELS 3 Zrotation Xrotation Yrotation
                JOINT LeftToeBase
                {
                    OFFSET -0.000000 -6.589051 15.205504
                    CHANNELS 3 Zrotation Xrotation Yrotation
                    End Site
                    {
                        OFFSET -0.000000 0.000000 4.054801
                    }
                }
            }
        }
    }
    JOINT RightUpLeg
    {
        OFFSET -10.137003 0.000000 0.000000
        CHANNELS 3 Zrotation Xrotation Yrotation
        JOINT RightLeg
        {
            OFFSET -0.000000 -31.675148 0.000000
            CHANNELS 3 Zrotation Xrotation Yrotation
            JOINT RightFoot
            {
                OFFSET -0.000000 -48.008553 0.000000
                CHANNELS 3 Zrotation Xrotation Yrotation
                JOINT RightToeBase
                {
                    OFFSET -0.000000 -6.589051 15.205504
                    CHANNELS 3 Zrotation Xrotation Yrotation
                    End Site
                    {
                        OFFSET -0.000000 0.000000 4.054801
                    }
                }
            }
        }
    }
}
MOTION
Frames:    13
Frame Time:    0.008333
98.592781    87.725830    -11.576745    -4.430604    -0.802914    85.081978    2.772074    -13.282701    0.102320    -2.435107    2.886372    -0.159378    0.502273    24.256382    -6.043179    5.509615    0.231838    -5.478334    12.177569    -0.919932    -3.881103    -6.969786    -5.558978    4.472073    3.061182    -0.327097    -0.430619    17.875080    0.433958    4.763955    -13.606399    0.018614    4.591983    17.337626    -1.298422    12.533746    -2.002593    -2.450759    0.937901    -9.773853    -2.754720    3.748683    10.135365    1.625681    3.111429    -3.716792    -4.523202    11.458487    -7.625561    7.628177    19.585386    0.000000    0.000000    0.000000    -1.753688    3.044797    0.749910    2.980331    -4.254120    -4.408480    5.441359    0.659121    -10.565306    0.000000    0.000000    0.000000    
98.558464    87.717552    -11.557087    -4.502770    -0.830275    85.151657    2.799966    -13.345385    0.064075    -2.457849    2.889250    -0.201706    0.515332    24.227415    -6.061747    5.456821    0.285684    -5.506752    12.165859    -0.929209    -3.885640    -6.935311    -5.566160    4.480257    3.032748    -0.199724    -0.494718    17.939232    0.567954    4.777921    -13.567669    -0.015280    4.630027    17.317554    -1.247416    12.521820    -2.028557    -2.423589    1.009655    -9.591660    -2.718134    3.725946    10.197511    1.443364    3.094498    -3.736912    -4.398189    11.300623    -7.573418    7.529888    19.705875    0.000000    0.000000    0.000000    -1.697860    2.905666    0.678066    2.974364    -4.161811    -4.396612    5.401473    0.615474    -10.573628    0.000000    0.000000    0.000000    
98.515625    87.707405    -11.540479    -4.593955    -0.840014    85.202484    2.786103    -13.424397    0.060531    -2.436122    2.903371    -0.205820    0.557222    24.210758    -6.111850    5.411032    0.287565    -5.562306    12.182023    -0.951230    -3.946471    -6.973704    -5.552329    4.457402    3.043075    -0.124302    -0.499530    18.037630    0.644575    4.759159    -13.585902    -0.033342    4.583594    17.354361    -1.226326    12.533783    -2.038293    -2.441728    1.066664    -9.837334    -2.740993    3.699936    10.238047    1.237372    3.081313    -3.746340    -4.273510    11.199492    -7.571539    7.442988    19.778875    0.000000    0.000000    0.000000    -1.671158    2.726954    0.618231    2.985337    -4.047852    -4.347298    5.382292    0.551446    -10.596009    0.000000    0.000000    0.000000    
98.480103    87.698029    -11.517978    -4.648461    -0.841618    85.230949    2.777764    -13.457968    0.052088    -2.446015    2.884154    -0.214232    0.599995    24.254492    -6.150705    5.372235    0.247308    -5.602820    12.193151    -0.916663    -3.971879    -6.999114    -5.483630    4.413624    3.074823    -0.122188    -0.481794    18.102463    0.647495    4.751075    -13.572592    -0.019923    4.593211    17.360344    -1.265853    12.554527    -2.024595    -2.389348    1.065367    -9.793145    -2.695558    3.795979    10.224230    1.080760    3.199301    -3.678466    -4.178710    11.418829    -7.544174    7.489219    19.417624    0.000000    0.000000    0.000000    -1.637757    2.591923    0.576029    2.970008    -3.944348    -4.316542    5.372548    0.478903    -10.599952    0.000000    0.000000    0.000000    
98.476227    87.695900    -11.496819    -4.630313    -0.832972    85.267876    2.753406    -13.476867    0.026024    -2.452676    2.941077    -0.236618    0.603786    24.268997    -6.176836    5.360742    0.209744    -5.629546    12.205827    -0.956340    -3.957896    -7.017438    -5.379628    4.387354    3.071869    -0.138458    -0.497488    18.220169    0.643568    4.790873    -13.582766    -0.064616    4.623105    17.390846    -1.227013    12.547711    -2.042122    -2.369580    1.103141    -9.764559    -2.670657    3.757068    10.224666    1.046317    3.208399    -3.667547    -4.120600    11.467189    -7.568305    7.501508    19.323675    0.000000    0.000000    0.000000    -1.633923    2.588937    0.550823    2.970346    -3.901722    -4.305072    5.364207    0.445365    -10.615223    0.000000    0.000000    0.000000    
98.472160    87.696510    -11.477156    -4.615034    -0.826598    85.300629    2.729716    -13.492898    0.021496    -2.458130    2.986254    -0.237501    0.622338    24.071131    -6.311428    5.330241    0.532231    -5.788696    12.217134    -0.943434    -3.971144    -7.015858    -5.424001    4.317019    3.058923    -0.128498    -0.476408    18.346849    0.663978    4.829394    -13.609670    -0.170808    4.578955    17.459377    -1.114560    12.559981    -2.076949    -2.314875    1.150035    -9.546443    -2.595659    3.614174    10.234685    1.020343    3.228379    -3.680910    -4.070281    11.381968    -7.549651    7.489844    19.381395    0.000000    0.000000    0.000000    -1.623353    2.591597    0.510873    2.966759    -3.876156    -4.306880    5.362512    0.416910    -10.605765    0.000000    0.000000    0.000000    
98.471733    87.695953    -11.461734    -4.587056    -0.814086    85.330750    2.710695    -13.490233    0.032116    -2.496071    3.016013    -0.222871    0.728154    24.071774    -6.388953    5.281179    0.552528    -5.869156    12.299476    -0.928276    -4.013999    -7.086479    -5.491647    4.260128    3.064376    -0.150405    -0.432643    18.518070    0.625881    4.690631    -13.571594    -0.181511    4.543667    17.449677    -1.045222    12.543268    -2.069131    -2.311944    1.178995    -9.546584    -2.594490    3.640231    10.225944    1.017858    3.187997    -3.670899    -4.036967    11.384318    -7.520398    7.497497    19.367910    0.000000    0.000000    0.000000    -1.628475    2.605705    0.487775    2.967301    -3.850078    -4.336836    5.337954    0.410060    -10.560856    0.000000    0.000000    0.000000    
98.472260    87.693748    -11.442400    -4.563134    -0.812842    85.358414    2.711880    -13.500993    0.023336    -2.528783    3.062315    -0.230223    0.715207    24.243572    -6.359469    5.360641    0.288989    -5.815099    12.320342    -0.934623    -4.023990    -7.079772    -5.535309    4.223167    3.059642    -0.163451    -0.418351    18.507336    0.615497    4.711331    -13.569090    -0.201034    4.532955    17.408564    -0.757638    12.541804    -2.061254    -2.434870    1.202840    -9.525354    -2.722569    3.714789    10.240644    1.009732    3.202975    -3.683044    -3.996241    11.368390    -7.516849    7.486349    19.361513    0.000000    0.000000    0.000000    -1.622663    2.615043    0.455931    2.970334    -3.811945    -4.311087    5.353362    0.361550    -10.557063    0.000000    0.000000    0.000000    
98.456985    87.698761    -11.424920    -4.584062    -0.801372    85.377563    2.676851    -13.521967    0.029542    -2.506653    3.060546    -0.220956    0.738040    24.209614    -6.423268    5.331714    0.376895    -5.888145    12.313884    -0.934259    -4.060647    -7.084080    -5.575152    4.185543    3.091796    -0.159632    -0.478672    18.464243    0.661778    4.972439    -13.594894    -0.184881    4.471046    17.433565    -0.761329    12.595633    -2.050996    -2.394880    1.189985    -9.475666    -2.683313    3.738924    10.278244    0.961578    3.114323    -3.744654    -3.959192    11.150131    -7.509654    7.439320    19.664780    0.000000    0.000000    0.000000    -1.620145    2.543366    0.439573    2.970099    -3.740755    -4.309620    5.344963    0.335650    -10.551854    0.000000    0.000000    0.000000    
98.460480    87.696030    -11.406572    -4.549999    -0.800129    85.406815    2.669769    -13.529858    0.023005    -2.528433    3.123844    -0.224961    1.069489    24.331205    -6.467862    4.881608    0.086559    -5.958140    12.333732    -0.955175    -4.073616    -7.077346    -5.610194    4.151835    3.073326    -0.172488    -0.427392    18.622667    0.626056    4.800297    -13.603165    -0.193423    4.446319    17.497391    -0.944362    12.650299    -2.041874    -2.269752    1.129082    -9.449036    -2.564992    3.817462    10.294486    0.961749    3.101738    -3.755039    -3.909936    11.090777    -7.514033    7.415524    19.692696    0.000000    0.000000    0.000000    -1.613094    2.560514    0.427177    2.969931    -3.699636    -4.356380    5.347910    0.296089    -10.507232    0.000000    0.000000    0.000000    
98.459076    87.694992    -11.388653    -4.531909    -0.796231    85.425232    2.659427    -13.510530    0.012950    -2.534866    3.107549    -0.233401    1.055186    24.334579    -6.502591    4.896687    0.132316    -5.995201    12.348914    -0.972508    -4.074536    -7.095227    -5.598675    4.119602    3.110669    -0.127975    -0.480280    18.590813    0.713547    5.059177    -13.606002    -0.177703    4.450086    17.506046    -0.960636    12.669828    -2.031132    -2.221046    1.115601    -9.427844    -2.516748    3.827688    10.305502    0.943560    3.074939    -3.763024    -3.853672    11.028579    -7.497525    7.380087    19.768681    0.000000    0.000000    0.000000    -1.613415    2.546885    0.447241    2.979868    -3.646955    -4.416140    5.331751    0.267877    -10.461441    0.000000    0.000000    0.000000    
98.459473    87.692764    -11.372370    -4.503655    -0.795613    85.438927    2.663263    -13.484968    0.003710    -2.558774    3.093222    -0.242270    1.048378    24.327150    -6.535636    4.885756    0.201930    -6.034732    12.350102    -0.964706    -4.081707    -7.087406    -5.611698    4.085208    3.122562    -0.075231    -0.408000    18.740166    0.744092    4.892612    -13.537635    -0.113702    4.352203    17.431026    -0.981496    12.853059    -1.985402    -2.175192    1.070454    -9.693174    -2.469301    3.688880    10.314862    0.942283    3.060900    -3.761661    -3.813270    11.019815    -7.494540    7.369195    19.776251    0.000000    0.000000    0.000000    -1.612303    2.527393    0.470102    2.983918    -3.561946    -4.411314    5.320264    0.202968    -10.472992    0.000000    0.000000    0.000000    
98.458275    87.689949    -11.355136    -4.482140    -0.792434    85.458824    2.662737    -13.463244    -0.020635    -2.571984    3.078980    -0.265989    1.043414    24.353521    -6.552209    4.832817    0.199627    -6.059457    12.323277    -0.965699    -4.062256    -7.053987    -5.560526    4.072098    3.143847    -0.021495    -0.422571    18.782818    0.805949    4.919528    -13.549164    -0.091666    4.378745    17.457571    -1.044369    12.894334    -1.979547    -2.131520    1.027905    -9.761171    -2.435829    3.773231    10.327676    0.929302    3.044074    -3.771376    -3.768977    11.027772    -7.488918    7.354324    19.764425    0.000000    0.000000    0.000000    -1.642044    2.456002    0.632320    3.032676    -3.403188    -4.430320    5.261625    0.095310    -10.597191    0.000000    0.000000    0.000000    
